<svg xmlns="http://www.w3.org/2000/svg" viewBox="0 0 380 150" role="img" aria-label="Emblème KWG Films">
  <rect width="380" height="150" rx="20" fill="#090909"/><g transform="translate(17 14)"><path fill="#d12d22" d="M0 0h24v48L71 0h34L47 59l61 63H73L24 72v50H0z"/><path fill="#f0ebdf" d="M70 7h26l22 62 25-48 25 48 22-62h26l-40 115-33-59-33 59z"/><path fill="none" stroke="#f0ebdf" stroke-width="23" d="M298 30a46 46 0 1 0 0 66h-30"/><path fill="none" stroke="#d12d22" stroke-width="23" d="M257 18a46 46 0 0 1 41 25"/><path fill="#f0ebdf" d="M268 60h46v23h-46z"/></g>
</svg>
